<?xml version="1.0" standalone="no"?>
<!DOCTYPE svg PUBLIC "-//W3C//DTD SVG 20010904//EN"
 "http://www.w3.org/TR/2001/REC-SVG-20010904/DTD/svg10.dtd">
<svg version="1.0" xmlns="http://www.w3.org/2000/svg"
 width="300.000000pt" height="259.000000pt" viewBox="0 0 300.000000 259.000000"
 preserveAspectRatio="xMidYMid meet">
<metadata>
Created by potrace 1.10, written by Peter Selinger 2001-2011
</metadata>
<g transform="translate(0.000000,259.000000) scale(0.100000,-0.100000)"
fill="white" stroke="none">
<path d="M1550 1910 c-189 -43 -271 -47 -485 -29 -206 19 -258 2 -311 -102
-30 -60 -45 -70 -164 -109 -132 -43 -158 -71 -180 -190 -6 -36 -21 -86 -32
-112 -20 -48 -21 -48 -59 -42 -60 10 -123 -18 -158 -70 -37 -53 -54 -67 -92
-75 -38 -8 -42 -25 -6 -29 16 -2 62 13 116 37 48 23 97 41 108 41 19 0 21 -6
19 -67 -1 -84 24 -140 102 -225 64 -68 130 -108 230 -138 41 -12 115 -45 165
-74 139 -80 204 -111 292 -138 276 -86 617 -114 895 -74 198 28 348 64 410 97
123 66 321 238 380 330 73 113 72 188 -6 307 -48 71 -78 154 -94 257 -20 123
-33 149 -101 194 -79 53 -217 97 -379 121 -164 24 -229 36 -295 54 -140 40
-275 54 -355 36z m345 -64 c77 -20 183 -41 235 -47 205 -23 390 -81 459 -144
31 -29 36 -43 66 -176 32 -144 44 -173 110 -277 50 -80 54 -120 17 -195 -39
-79 -109 -157 -220 -245 -180 -143 -221 -160 -507 -207 -146 -25 -176 -27
-375 -22 -365 7 -582 59 -820 195 -118 68 -189 102 -215 102 -11 0 -48 13 -83
30 -123 58 -241 215 -229 304 3 23 9 50 12 62 6 19 1 22 -36 28 -35 6 -52 2
-92 -19 -27 -14 -51 -25 -54 -25 -2 0 6 14 18 31 34 48 127 77 155 49 33 -33
83 63 114 221 7 35 20 64 33 77 13 12 72 39 132 59 116 40 125 47 190 155 31
51 87 61 248 47 169 -15 361 -7 452 20 99 30 210 23 390 -23z"/>
</g>
</svg>
