<?xml version="1.0" standalone="no"?>
<!DOCTYPE svg PUBLIC "-//W3C//DTD SVG 20010904//EN"
 "http://www.w3.org/TR/2001/REC-SVG-20010904/DTD/svg10.dtd">
<svg version="1.0" xmlns="http://www.w3.org/2000/svg"
 width="300.000000pt" height="259.000000pt" viewBox="0 0 300.000000 259.000000"
 preserveAspectRatio="xMidYMid meet">
<metadata>
Created by potrace 1.10, written by Peter Selinger 2001-2011
</metadata>
<g transform="translate(0.000000,259.000000) scale(0.100000,-0.100000)"
fill="white" stroke="none">
<path d="M1299 2322 c-93 -98 -296 -137 -469 -92 -41 11 -80 20 -86 20 -6 0
-16 -25 -22 -56 -23 -112 -131 -284 -245 -390 -39 -36 -138 -110 -221 -166
-83 -55 -155 -104 -159 -108 -4 -4 17 -58 48 -120 56 -111 175 -367 175 -375
0 -2 18 -51 40 -108 39 -101 41 -104 73 -105 47 -2 275 -50 327 -69 35 -13
150 -80 150 -87 0 -1 -7 -55 -15 -121 -8 -66 -17 -156 -20 -200 -4 -44 -10
-118 -15 -164 -5 -47 -8 -87 -5 -89 7 -7 25 9 25 24 0 8 20 87 45 177 25 89
55 197 66 240 12 42 24 77 26 77 3 0 18 -9 34 -21 54 -38 160 -80 188 -75 14
3 44 8 66 11 22 3 72 12 110 20 39 8 151 27 250 42 158 24 211 27 435 27 204
1 278 -3 368 -18 62 -10 115 -16 117 -14 3 3 19 45 36 94 60 174 186 393 281
486 26 26 48 49 48 52 0 3 -43 62 -96 132 -164 218 -278 440 -298 578 -11 74
-13 76 -67 76 -173 0 -535 102 -941 264 -118 47 -217 86 -219 86 -2 -1 -16
-13 -30 -28z m259 -88 c396 -158 736 -254 898 -254 l63 0 11 -57 c34 -174 139
-377 312 -602 l80 -103 -45 -47 c-97 -99 -231 -333 -278 -484 l-24 -79 -60 6
c-33 4 -118 14 -190 23 -231 28 -564 1 -987 -81 l-118 -23 -54 22 c-30 12 -78
39 -107 59 -28 21 -55 34 -59 29 -4 -4 -24 -73 -45 -153 -20 -80 -43 -163 -51
-185 l-14 -40 4 45 c3 25 13 116 23 204 l18 159 -35 29 c-80 66 -246 118 -459
142 -17 2 -28 13 -37 37 -94 247 -138 348 -240 550 l-43 87 127 84 c195 130
275 198 348 296 74 99 141 227 150 283 4 22 12 39 18 39 6 0 44 -9 85 -20 95
-25 167 -25 267 0 76 20 169 67 201 103 9 9 18 17 20 17 2 0 102 -39 221 -86z"/>
</g>
</svg>
