<svg id="e4Kshrj9vWt1" xmlns="http://www.w3.org/2000/svg" xmlns:xlink="http://www.w3.org/1999/xlink" viewBox="0 0 220 250" shape-rendering="geometricPrecision" text-rendering="geometricPrecision" project-id="fe9c6b639a674ee0865c28fb1f9094bd" export-id="0e2d99901d2247eeb4b8f42eaa6b5996" cached="false"><g transform="matrix(.102421 0 0-.102421-50.135668 257.732859)"><path d="M1205,2485c-5-1-37-11-70-20-73-22-164-80-278-180-125-109-212-241-267-404-17-52-21-82-18-163c2-54,1-98-2-98-23,0-52-193-66-430-7-132,2-183,67-365c22-60,49-152,59-204c11-51,28-112,38-135c33-72,126-178,189-215c32-19,94-55,138-81c77-46,83-48,180-53c55-3,136-14,180-23c66-14,91-14,150-5c282,45,336,70,475,211c99,100,145,167,187,272c14,35,39,82,55,106c96,140,141,302,131,473-4,68-1,111,10,154c30,115,31,279,3,345-4,10,2,19,16,25c33,15,58,71,58,133c0,46-4,58-29,83-34,34-78,38-118,12-15-10-28-13-31-8-2,6-31,64-65,130-66,127-72,133-228,245-144,103-188,120-383,145-66,9-156,25-200,35-72,18-152,24-181,15Zm193-45c84-18,141-27,285-45c88-11,164-48,297-146c137-101,150-116,200-229c33-75,68-130,86-137c8-3,22,1,32,10c36,31,60,30,93-3c28-28,31-36,26-77-6-53-35-98-65-98-32-1-34-9-12-56c24-54,27-194,5-284-9-38-14-114-15-205c0-114-4-161-20-218-22-79-65-171-112-239-16-24-35-60-42-80-28-75-57-133-92-180-59-78-155-173-218-214-69-46-197-89-263-89-25,0-63-5-85-12-30-9-56-9-116,1-42,7-127,16-188,20-108,7-114,9-175,48-35,22-92,55-127,74-116,60-203,184-232,331-11,51-41,157-69,236-27,78-52,171-56,205-14,126,20,484,52,557c4,8,7,56,8,105c1,50,8,110,15,135c17,65,66,174,107,239c67,105,249,268,368,328c90,46,178,52,313,23Z"/><path d="M2560,2051c0-25,36-64,53-58c7,2,12,19,12,38c0,31-3,34-32,37-28,3-33,0-33-17Z"/><path d="M2463,2013c-24-9-15-61,12-79c24-16,27-16,45,1c21,19,25,42,12,61-8,13-52,24-69,17Zm31-29c9-3,16-12,16-20c0-17-12-18-28-2-22,22-16,33,12,22Z"/></g></svg>
