<svg id="egL9FPItMjs1" xmlns="http://www.w3.org/2000/svg" xmlns:xlink="http://www.w3.org/1999/xlink" viewBox="0 0 300 259" shape-rendering="geometricPrecision" text-rendering="geometricPrecision" project-id="a647eb2f779348f1ba5171a9e1c052ff" export-id="386d6889eb3f465e91c3c8c0741077e8" cached="false"><g transform="matrix(.162039 0 0-.162039-96.814671 346.135343)"><path d="M1465,2113c-155-21-360-144-446-270-117-170-144-275-144-563c0-293,29-396,158-551c80-96,178-137,396-164c212-27,339,9,540,153l75,53l63-7c71-7,88,8,27,25-73,20-102,74-69,125c55,84,100,331,92,511-5,128-23,213-67,319-41,99-90,160-179,225-162,117-303,163-446,144Zm225-49c39-14,88-35,108-47c73-42,182-129,211-169c68-92,131-308,131-449c0-165-48-405-94-471-23-33-20-87,6-115c21-23,21-23,1-23-12,0-56-25-99-57-99-71-190-117-274-138-130-34-387-4-524,61-44,21-70,43-116,101-82,101-97,135-127,276-23,110-25,138-20,277c9,268,50,403,165,546c59,73,127,126,217,168c173,82,273,91,415,40Z"/></g></svg>
