<svg id="e7eUyTdfLbE1" xmlns="http://www.w3.org/2000/svg" xmlns:xlink="http://www.w3.org/1999/xlink" viewBox="0 0 220 315" shape-rendering="geometricPrecision" text-rendering="geometricPrecision" project-id="fe9c6b639a674ee0865c28fb1f9094bd" export-id="642b52f10d0643dbbf03b9092c2d5e40" cached="false"><g transform="matrix(.127078 0 0-.127078-69.942448 322.63379)"><path d="M1295,2495c-140-25-268-91-381-198-92-86-141-150-198-257-99-187-139-353-139-575c0-126,4-168,26-260c87-376,294-633,598-742c67-24,88-26,219-27c125,0,152,3,198,21l53,21l10-26c6-15,18-35,26-44c18-20,73-24,103-8c24,13,44,83,36,130-5,32-1,38,47,80c164,141,280,336,338,570c21,84,24,118,24,290c0,181-2,202-27,296-58,215-137,360-268,495-133,136-259,206-425,235-95,17-146,17-240-1Zm327-45c296-95,508-360,595-745c27-119,25-367-4-495-55-242-153-415-320-570l-78-71l3-60c4-68-13-99-55-99-28,0-63,33-63,59c0,11-4,22-9,25-4,3-52-6-106-19-111-28-198-31-297-10-399,84-688,506-688,1004c0,468,261,879,625,985c33,10,65,19,70,21c6,2,61,4,122,4c99,1,124-3,205-29Z"/><path d="M1779,329c-30-30-23-81,14-93c21-8,35-7,55,5c36,20,39,52,8,84-30,30-49,32-77,4Zm72-30c13-24,3-37-30-41-31-4-50,24-32,46c19,22,48,20,62-5Z"/><path d="M1826,184c-19-19-30-58-22-79c7-18,67-20,84-3c18,18,14,63-6,81-23,21-36,21-56,1Zm48-29c8-23-4-45-24-45-25,0-33,16-20,40s35,26,44,5Z"/></g></svg>
