<?xml version="1.0" standalone="no"?>
<!DOCTYPE svg PUBLIC "-//W3C//DTD SVG 20010904//EN"
 "http://www.w3.org/TR/2001/REC-SVG-20010904/DTD/svg10.dtd">
<svg version="1.0" xmlns="http://www.w3.org/2000/svg"
 width="300.000000pt" height="259.000000pt" viewBox="0 0 300.000000 259.000000"
 preserveAspectRatio="xMidYMid meet">
<metadata>
Created by potrace 1.10, written by Peter Selinger 2001-2011
</metadata>
<g transform="translate(0.000000,259.000000) scale(0.100000,-0.100000)"
fill="#000000" stroke="none">
<path d="M1400 2110 c-8 -5 -26 -10 -39 -10 -64 0 -269 -121 -353 -207 -72
-74 -126 -200 -159 -371 -26 -137 10 -433 70 -565 17 -38 31 -80 31 -93 0 -30
-44 -73 -82 -81 -53 -10 -29 -24 30 -17 64 7 84 -2 190 -83 98 -75 244 -123
375 -123 139 1 336 45 418 93 40 24 117 112 162 184 23 38 61 156 71 223 25
157 15 389 -24 552 -28 119 -118 258 -223 346 -123 102 -403 194 -467 152z
m227 -44 c197 -68 322 -179 414 -367 15 -31 30 -69 32 -85 36 -205 39 -244 34
-389 -4 -110 -12 -174 -29 -240 -27 -102 -53 -151 -130 -245 -45 -54 -65 -69
-121 -92 -96 -40 -248 -68 -365 -68 -156 0 -250 35 -421 158 -52 37 -82 52
-98 49 l-22 -4 24 29 c30 36 32 79 5 123 -48 78 -90 295 -90 471 0 131 52 320
115 420 58 91 211 197 355 246 103 35 185 33 297 -6z"/>
</g>
</svg>
