<?xml version="1.0" standalone="no"?>
<!DOCTYPE svg PUBLIC "-//W3C//DTD SVG 20010904//EN"
 "http://www.w3.org/TR/2001/REC-SVG-20010904/DTD/svg10.dtd">
<svg version="1.0" xmlns="http://www.w3.org/2000/svg"
 width="300.000000pt" height="259.000000pt" viewBox="0 0 300.000000 259.000000"
 preserveAspectRatio="xMidYMid meet">
<metadata>
Created by potrace 1.10, written by Peter Selinger 2001-2011
</metadata>
<g transform="translate(0.000000,259.000000) scale(0.100000,-0.100000)"
fill="black" stroke="none">
<path d="M1465 2113 c-155 -21 -360 -144 -446 -270 -117 -170 -144 -275 -144
-563 0 -293 29 -396 158 -551 80 -96 178 -137 396 -164 212 -27 339 9 540 153
l75 53 63 -7 c71 -7 88 8 27 25 -73 20 -102 74 -69 125 55 84 100 331 92 511
-5 128 -23 213 -67 319 -41 99 -90 160 -179 225 -162 117 -303 163 -446 144z
m225 -49 c39 -14 88 -35 108 -47 73 -42 182 -129 211 -169 68 -92 131 -308
131 -449 0 -165 -48 -405 -94 -471 -23 -33 -20 -87 6 -115 21 -23 21 -23 1
-23 -12 0 -56 -25 -99 -57 -99 -71 -190 -117 -274 -138 -130 -34 -387 -4 -524
61 -44 21 -70 43 -116 101 -82 101 -97 135 -127 276 -23 110 -25 138 -20 277
9 268 50 403 165 546 59 73 127 126 217 168 173 82 273 91 415 40z"/>
</g>
</svg>
