<?xml version="1.0" standalone="no"?>
<!DOCTYPE svg PUBLIC "-//W3C//DTD SVG 20010904//EN"
 "http://www.w3.org/TR/2001/REC-SVG-20010904/DTD/svg10.dtd">
<svg version="1.0" xmlns="http://www.w3.org/2000/svg"
 width="300.000000pt" height="259.000000pt" viewBox="0 0 300.000000 259.000000"
 preserveAspectRatio="xMidYMid meet">
<metadata>
Created by potrace 1.10, written by Peter Selinger 2001-2011
</metadata>
<g transform="translate(0.000000,259.000000) scale(0.100000,-0.100000)"
fill="#000000" stroke="none">
<path d="M1295 2495 c-140 -25 -268 -91 -381 -198 -92 -86 -141 -150 -198
-257 -99 -187 -139 -353 -139 -575 0 -126 4 -168 26 -260 87 -376 294 -633
598 -742 67 -24 88 -26 219 -27 125 0 152 3 198 21 l53 21 10 -26 c6 -15 18
-35 26 -44 18 -20 73 -24 103 -8 24 13 44 83 36 130 -5 32 -1 38 47 80 164
141 280 336 338 570 21 84 24 118 24 290 0 181 -2 202 -27 296 -58 215 -137
360 -268 495 -133 136 -259 206 -425 235 -95 17 -146 17 -240 -1z m327 -45
c296 -95 508 -360 595 -745 27 -119 25 -367 -4 -495 -55 -242 -153 -415 -320
-570 l-78 -71 3 -60 c4 -68 -13 -99 -55 -99 -28 0 -63 33 -63 59 0 11 -4 22
-9 25 -4 3 -52 -6 -106 -19 -111 -28 -198 -31 -297 -10 -399 84 -688 506 -688
1004 0 468 261 879 625 985 33 10 65 19 70 21 6 2 61 4 122 4 99 1 124 -3 205
-29z"/>
<path d="M1779 329 c-30 -30 -23 -81 14 -93 21 -8 35 -7 55 5 36 20 39 52 8
84 -30 30 -49 32 -77 4z m72 -30 c13 -24 3 -37 -30 -41 -31 -4 -50 24 -32 46
19 22 48 20 62 -5z"/>
<path d="M1826 184 c-19 -19 -30 -58 -22 -79 7 -18 67 -20 84 -3 18 18 14 63
-6 81 -23 21 -36 21 -56 1z m48 -29 c8 -23 -4 -45 -24 -45 -25 0 -33 16 -20
40 13 24 35 26 44 5z"/>
</g>
</svg>
